
<svg xmlns="http://www.w3.org/2000/svg" width="49" height="48" viewBox="0 0 49 48" fill="none">
  <path d="M24.1837 26.9297C29.0277 26.9297 32.9582 22.9992 32.9582 18.1552C32.9582 13.3112 29.0277 9.38065 24.1837 9.38065C19.3397 9.38065 15.4092 13.3112 15.4092 18.1552C15.4092 22.9992 19.3397 26.9297 24.1837 26.9297Z" stroke="#5014D0" stroke-width="1.5"/>
  <path d="M24.1836 17.3252C25.3992 17.3252 26.3836 16.3408 26.3836 15.1252C26.3836 13.9097 25.3992 12.9252 24.1836 12.9252C22.968 12.9252 21.9836 13.9097 21.9836 15.1252C21.9836 16.3408 22.968 17.3252 24.1836 17.3252Z" fill="#5014D0"/>
  <path d="M35.7777 32.2493L27.4127 40.6144C25.8377 42.1894 22.5277 42.1894 20.9527 40.6144L12.5877 32.2493C8.80268 28.4643 8.80268 22.2843 12.5877 18.4793C16.3727 14.6943 22.5527 14.6943 26.3577 18.4793L26.8277 18.9493L27.2977 18.4793C31.0827 14.6943 37.2627 14.6943 41.0677 18.4793C44.8527 22.2843 44.8527 28.4643 41.0677 32.2493H35.7777Z" stroke="#04C8C8" stroke-width="1.5" stroke-linecap="round" stroke-linejoin="round"/>
</svg>
