
<svg xmlns="http://www.w3.org/2000/svg" width="49" height="48" viewBox="0 0 49 48" fill="none">
  <path d="M7.03235 16.9201C7.03235 12.2521 7.03235 9.91765 8.51562 8.43455C9.99889 6.95129 12.3332 6.95129 17.0013 6.95129H31.3651C36.0331 6.95129 38.3675 6.95129 39.8508 8.43455C41.3341 9.91765 41.3341 12.2521 41.3341 16.9201V31.284C41.3341 35.952 41.3341 38.2864 39.8508 39.7697C38.3675 41.253 36.0331 41.253 31.3651 41.253H17.0013C12.3332 41.253 9.99889 41.253 8.51562 39.7697C7.03235 38.2864 7.03235 35.952 7.03235 31.284V16.9201Z" stroke="#04C8C8" stroke-width="1.5"/>
  <path d="M17.0005 6.95129V41.2513" stroke="#04C8C8" stroke-width="1.5"/>
  <path d="M31.3672 6.95129V41.2513" stroke="#04C8C8" stroke-width="1.5"/>
  <path d="M7.03235 24.1016H41.3341" stroke="#04C8C8" stroke-width="1.5"/>
  <path d="M7.03235 28.8496H17.0013" stroke="#5014D0" stroke-width="1.5"/>
  <path d="M7.03235 33.5977H17.0013" stroke="#5014D0" stroke-width="1.5"/>
  <path d="M31.3672 28.8496H41.3361" stroke="#5014D0" stroke-width="1.5"/>
  <path d="M31.3672 33.5977H41.3361" stroke="#5014D0" stroke-width="1.5"/>
  <path d="M7.03235 19.3535H17.0013" stroke="#5014D0" stroke-width="1.5"/>
  <path d="M31.3672 19.3535H41.3361" stroke="#5014D0" stroke-width="1.5"/>
  <path d="M20.377 13.2314H27.9915" stroke="#5014D0" stroke-width="1.5"/>
  <path d="M20.377 17.9795H27.9915" stroke="#5014D0" stroke-width="1.5"/>
  <path d="M20.377 22.7275H27.9915" stroke="#5014D0" stroke-width="1.5"/>
  <path d="M20.377 30.0996H27.9915" stroke="#5014D0" stroke-width="1.5"/>
  <path d="M20.377 34.8477H27.9915" stroke="#5014D0" stroke-width="1.5"/>
</svg>
