
<svg width="160" height="40" viewBox="0 0 160 40" fill="none" xmlns="http://www.w3.org/2000/svg">
  <path d="M15.936 30H12.096V18.768H4.8V30H0.96V5.76H4.8V15.552H12.096V5.76H15.936V30ZM31.3338 30V27.072C30.2298 29.04 28.2778 30.288 26.0138 30.288C22.0778 30.288 19.3418 27.264 19.3418 22.704C19.3418 18.12 22.1258 15.072 26.1338 15.072C28.3498 15.072 30.2538 16.296 31.3338 18.288V15.36H35.0778V30H31.3338ZM23.0618 22.704C23.0618 25.344 24.7658 27 27.2138 27C29.6378 27 31.3418 25.344 31.3418 22.704C31.3418 20.064 29.6378 18.36 27.2138 18.36C24.7658 18.36 23.0618 20.064 23.0618 22.704ZM50.0375 33.984C46.9655 33.984 43.9175 32.544 42.6215 30.072L45.8855 28.368C46.5535 29.784 48.2575 30.696 50.0615 30.696C52.2535 30.696 53.8575 29.472 53.8575 27.264V26.952C52.7775 28.776 50.8015 29.904 48.6335 29.904C44.6735 29.904 41.8855 26.808 41.8855 22.32C41.8855 17.832 44.6735 14.736 48.6335 14.736C50.8255 14.736 52.8015 15.912 53.8575 17.784V15.36H57.6015V27.192C57.6015 31.488 54.6535 33.984 50.0375 33.984ZM45.6455 22.344C45.6455 24.912 47.3255 26.568 49.7735 26.568C52.2215 26.568 53.8815 24.912 53.8815 22.344C53.8815 19.752 52.2215 18.096 49.7735 18.096C47.3255 18.096 45.6455 19.776 45.6455 22.344ZM67.7419 30H63.9979V15.36H67.7419V18.288C68.8219 16.248 70.7499 15.072 73.0379 15.072C77.0219 15.072 79.7579 18.12 79.7579 22.704C79.7579 27.264 77.0219 30.288 73.0379 30.288C70.7739 30.288 68.8219 29.04 67.7419 27.072V30ZM67.7259 22.704C67.7259 25.344 69.4299 27 71.8539 27C74.3019 27 76.0059 25.344 76.0059 22.704C76.0059 20.064 74.3019 18.36 71.8539 18.36C69.4299 18.36 67.7259 20.064 67.7259 22.704ZM89.0051 30.288C84.9971 30.288 81.9731 27.216 81.9731 22.704C81.9731 18.192 84.9971 15.072 89.0051 15.072C91.0531 15.072 92.8851 15.96 94.0611 17.712L91.0611 19.608C90.5291 18.744 89.7371 18.36 88.9451 18.36C87.0171 18.36 85.7211 20.016 85.7211 22.704C85.7211 25.392 87.0171 27.024 88.9451 27.024C89.7371 27.024 90.5291 26.64 91.0611 25.776L94.0611 27.672C92.8851 29.424 91.0531 30.288 89.0051 30.288ZM93.5771 15.36H97.1251L97.8171 16.536C98.5571 15.552 99.9971 15.072 101.653 15.072C105.157 15.072 107.373 17.4 107.373 21.072V30H103.629V21.864C103.629 19.968 102.493 18.504 100.549 18.504C98.5811 18.504 97.3211 19.968 97.3211 21.864V30H93.5771V15.36ZM121.654 30L117.886 23.88L116.374 25.68V30H112.63V5.76H116.374V20.856L121.654 15.36H126.334L120.118 21.936L126.574 30H121.654ZM134.913 30.288C130.905 30.288 127.881 27.24 127.881 22.704C127.881 18.144 130.905 15.072 134.913 15.072C138.897 15.072 141.945 18.144 141.945 22.704C141.945 27.24 138.897 30.288 134.913 30.288ZM131.649 22.704C131.649 25.344 133.113 27 134.913 27C136.689 27 138.177 25.344 138.177 22.704C138.177 20.064 136.689 18.36 134.913 18.36C133.113 18.36 131.649 20.064 131.649 22.704ZM151.188 30.288C147.132 30.288 144.204 27.24 144.204 22.704C144.204 18.144 147.132 15.072 151.188 15.072C153.3 15.072 155.132 15.936 156.332 17.688L153.332 19.584C152.78 18.744 152.036 18.36 151.14 18.36C149.22 18.36 147.972 20.064 147.972 22.704C147.972 25.32 149.22 27 151.14 27C152.036 27 152.78 26.616 153.332 25.752L156.332 27.648C155.132 29.424 153.3 30.288 151.188 30.288Z" fill="url(#paint0_linear_1_2)"/>
  <defs>
    <linearGradient id="paint0_linear_1_2" x1="80" y1="0" x2="80" y2="40" gradientUnits="userSpaceOnUse">
      <stop stop-color="#3B82F6"/>
      <stop offset="1" stop-color="#2563EB"/>
    </linearGradient>
  </defs>
</svg>
