
<svg width="160" height="40" viewBox="0 0 160 40" fill="none" xmlns="http://www.w3.org/2000/svg">
  <!-- House/building icon -->
  <path d="M20 7L11 14V30H29V14L20 7Z" fill="white"/>
  
  <!-- Location pin marker -->
  <circle cx="20" cy="20" r="4" fill="#5014d0"/>
  <circle cx="20" cy="20" r="2" fill="white"/>
  
  <!-- API text -->
  <path d="M110 16L107 16L107 13L104 13L104 25L107 25L107 19L110 19L110 25L113 25L113 13L110 13L110 16Z" fill="white"/>
  <path d="M120 13C116.5 13 114 15.5 114 19C114 22.5 116.5 25 120 25C123.5 25 126 22.5 126 19C126 15.5 123.5 13 120 13ZM120 22C118.3 22 117 20.7 117 19C117 17.3 118.3 16 120 16C121.7 16 123 17.3 123 19C123 20.7 121.7 22 120 22Z" fill="white"/>
  <path d="M127 13L127 25L136 25L136 22L130 22L130 13L127 13Z" fill="white"/>
  
  <!-- Text: REALESTATE -->
  <path d="M44 13H48C49.1 13 50 13.4 50.7 14.1C51.4 14.8 51.7 15.8 51.7 16.9C51.7 18 51.4 19 50.7 19.7C50 20.4 49.1 20.8 48 20.8H46.3V25H44V13ZM47.7 18.6C48.2 18.6 48.6 18.4 48.9 18.1C49.2 17.8 49.3 17.4 49.3 16.9C49.3 16.4 49.2 16 48.9 15.7C48.6 15.4 48.2 15.2 47.7 15.2H46.3V18.6H47.7Z" fill="white"/>
  <path d="M53.3 13H60.7V15.2H55.7V17.9H59.8V20.1H55.7V22.8H60.7V25H53.3V13Z" fill="white"/>
  <path d="M66.9 25L65.1 21.7H64.5H62.7V25H60.3V13H64.7C65.8 13 66.7 13.4 67.4 14.1C68.1 14.8 68.4 15.8 68.4 16.9C68.4 17.7 68.2 18.4 67.9 19C67.6 19.6 67.2 20 66.6 20.3L68.7 25H66.9ZM64.5 19.5C65 19.5 65.4 19.3 65.7 19C66 18.7 66.1 18.3 66.1 17.8C66.1 17.3 66 16.9 65.7 16.6C65.4 16.3 65 16.1 64.5 16.1H62.7V19.5H64.5Z" fill="white"/>
  <path d="M70.1 13H72.5V22.8H77.1V25H70.1V13Z" fill="white"/>
  <path d="M82.8 13H85.2V25H82.8V13Z" fill="white"/>
  <path d="M87.4 13H94.8V15.2H89.8V17.9H93.9V20.1H89.8V22.8H94.8V25H87.4V13Z" fill="white"/>
  <path d="M96.8 19C96.8 17.9 97 16.9 97.5 16.1C98 15.3 98.6 14.7 99.4 14.2C100.2 13.7 101.1 13.5 102.1 13.5C103.1 13.5 104 13.7 104.8 14.2C105.6 14.7 106.2 15.3 106.7 16.1C107.2 16.9 107.4 17.9 107.4 19C107.4 20.1 107.2 21.1 106.7 21.9C106.2 22.7 105.6 23.3 104.8 23.8C104 24.3 103.1 24.5 102.1 24.5C101.1 24.5 100.2 24.3 99.4 23.8C98.6 23.3 98 22.7 97.5 21.9C97 21.1 96.8 20.1 96.8 19ZM99.2 19C99.2 19.7 99.3 20.3 99.6 20.8C99.9 21.3 100.2 21.7 100.7 22C101.1 22.3 101.6 22.4 102.1 22.4C102.6 22.4 103.1 22.3 103.5 22C104 21.7 104.3 21.3 104.6 20.8C104.9 20.3 105 19.7 105 19C105 18.3 104.9 17.7 104.6 17.2C104.3 16.7 104 16.3 103.5 16C103.1 15.7 102.6 15.6 102.1 15.6C101.6 15.6 101.1 15.7 100.7 16C100.2 16.3 99.9 16.7 99.6 17.2C99.3 17.7 99.2 18.3 99.2 19Z" fill="white"/>
</svg>
