
<svg width="160" height="40" viewBox="0 0 160 40" fill="none" xmlns="http://www.w3.org/2000/svg">
  <path d="M26.4 16.3c0 3.6-2.9 6.5-6.5 6.5s-6.5-2.9-6.5-6.5 2.9-6.5 6.5-6.5 6.5 2.9 6.5 6.5z" fill="#04c8c8"/>
  <path d="M15.3 16.3c0 2.5 2 4.5 4.5 4.5s4.5-2 4.5-4.5-2-4.5-4.5-4.5-4.5 2-4.5 4.5z" fill="#5014d0"/>
  <path d="M19.9 14.3c0 1.1.9 2 2 2s2-.9 2-2-.9-2-2-2-2 .9-2 2z" fill="white"/>
  <path d="M19.3 20.3c-2.5-.5-4.4-2.7-4.4-5.3 0-1 .3-2 .8-2.8L14 16c-.7 1.2-1 2.6-1 4 0 4.6 3.7 8.3 8.3 8.3 3 0 5.6-1.6 7.1-3.9l-2.4-1.4c-1 1.4-2.7 2.3-4.6 2.3-1.4 0-2.7-.5-3.6-1.4l1.5-3.6z" fill="#5014d0"/>
  
  <path d="M45 22.5h-4.2v-9.2h-2.5v12h6.7v-2.8zm6.5-9.2c-3.5 0-5.6 2.5-5.6 6.1s2.1 6.1 5.6 6.1 5.6-2.5 5.6-6.1-2.1-6.1-5.6-6.1zm0 9.4c-1.7 0-2.9-1.3-2.9-3.3s1.2-3.3 2.9-3.3 2.9 1.3 2.9 3.3-1.2 3.3-2.9 3.3zm15.9-6.5h-4.3v-2.9h-2.7v12h2.7v-6.3h4.3v6.3h2.7v-12h-2.7v2.9zm7.7-2.9h-2.7v12h2.7v-12zm9.6 9.2c-1.7 0-2.9-1.3-2.9-3.3s1.2-3.3 2.9-3.3c1.2 0 2.1.6 2.5 1.7h2.9c-.5-2.6-2.7-4.3-5.4-4.3-3.5 0-5.6 2.5-5.6 6.1s2.1 6.1 5.6 6.1c2.8 0 4.9-1.8 5.4-4.4h-2.9c-.4 1-1.3 1.7-2.5 1.7zm9.6-6.5v2.1h3.8v7.1h2.7v-7.1h3.8v-2.1h-10.3zm14.1 0v2.1h3.8v7.1h2.7v-7.1h3.8v-2.1h-10.3zm21.4 2.3c0-2.8-2-4.9-5.3-4.9h-5.2v12h2.7v-3.8h2c.1 0 .2 0 .3 0l2.1 3.8h3.2l-2.5-4.3c1.6-.8 2.7-2.3 2.7-4.3v-2.5zm-5.1 1c1.3 0 2.3.5 2.3 1.8s-1 1.8-2.3 1.8h-2.7v-3.5h2.7z" fill="#5014d0"/>
  
  <path d="M137.2 22.5h-4.2v-9.2h-2.5v12h6.7v-2.8zm9.3-9.2c-3.5 0-5.6 2.5-5.6 6.1s2.1 6.1 5.6 6.1 5.6-2.5 5.6-6.1-2.1-6.1-5.6-6.1zm0 9.4c-1.7 0-2.9-1.3-2.9-3.3s1.2-3.3 2.9-3.3 2.9 1.3 2.9 3.3-1.2 3.3-2.9 3.3z" fill="#04c8c8"/>
  <path d="M144.8 13.3h2.7v2.9h4.3v-2.9h2.7v12h-2.7v-6.3h-4.3v6.3h-2.7v-12z" fill="#04c8c8"/>
</svg>
