
<svg width="160" height="40" viewBox="0 0 160 40" fill="none" xmlns="http://www.w3.org/2000/svg">
  <!-- Gear icon -->
  <path d="M23.5 15C23.5 17.5 21.5 19.5 19 19.5C16.5 19.5 14.5 17.5 14.5 15C14.5 12.5 16.5 10.5 19 10.5C21.5 10.5 23.5 12.5 23.5 15Z" fill="white" stroke="white" stroke-width="0.5"/>
  <path d="M19 25C17.9722 25 17 24.8792 16.0625 24.6667C15.4514 24.5264 15 23.9931 15 23.3681V21.5403C15 21.0972 14.6806 20.6944 14.2222 20.5833C13.8681 20.4861 13.5417 20.3472 13.2292 20.1875C12.8542 19.9931 12.375 20.0556 12.0694 20.3472L10.7639 21.6111C10.3125 22.0486 9.60417 22.1111 9.09722 21.7431C7.76389 20.8542 6.63889 19.7014 5.79167 18.3681C5.42361 17.8472 5.5 17.1389 5.92361 16.7153L7.19444 15.3889C7.5 15.0764 7.55556 14.5972 7.36111 14.2222C7.20139 13.9097 7.0625 13.5833 6.96528 13.2292C6.85417 12.7708 6.45139 12.4514 6.00833 12.4514H4.18056C3.55556 12.4514 3.02222 12 2.88194 11.3889C2.66944 10.4514 2.54861 9.47917 2.54861 8.45139C2.54861 8.39583 2.54861 8.34028 2.55556 8.28472C2.59722 7.66667 3.11111 7.17361 3.72917 7.16667C4.39583 7.15278 4.91667 7.64583 4.91667 8.30556V9.5C4.91667 9.625 5.02778 9.73611 5.15278 9.73611H7.23611C7.36806 9.73611 7.45139 9.60417 7.39583 9.47917C7.23611 9.10417 7.14583 8.70139 7.14583 8.28472C7.14583 6.23611 8.80556 4.5 10.875 4.5C11.3542 4.5 11.8194 4.59028 12.2431 4.75C12.4167 4.81944 12.5972 4.71528 12.625 4.53472C12.9236 2.98611 14.2917 1.83333 15.9306 1.83333C16.5556 1.83333 17.1389 2.02083 17.625 2.34722C17.7986 2.45833 18.0208 2.36806 18.0694 2.16667C18.3681 1.15278 19.2986 0.5 20.375 0.5C21.4097 0.5 22.3125 1.10417 22.6319 2.0625C22.6875 2.24306 22.8958 2.32639 23.0625 2.23611C23.5139 1.97917 24.0347 1.83333 24.5833 1.83333C26.3264 1.83333 27.7431 3.25 27.7431 4.99306C27.7431 5.27778 27.7083 5.55556 27.6389 5.81944C27.6042 5.95139 27.7153 6.07639 27.8472 6.05556C27.9583 6.04167 28.0694 6.02778 28.1806 6.02778C29.7153 6.02778 30.9931 7.17361 31.2292 8.68056C31.2708 8.87497 31.4583 9.00694 31.6597 8.97917C31.8125 8.95833 31.9653 8.94444 32.1181 8.94444C33.9028 8.94444 35.3681 10.3542 35.4515 12.125C35.4653 12.4167 35.4306 12.6944 35.3681 12.9653C35.3264 13.1458 35.4792 13.3333 35.6667 13.2986C35.7781 13.2778 35.8958 13.2639 36.0139 13.2639C37.8195 13.2639 39.2847 14.7292 39.2847 16.5347C39.2847 17.6458 38.7292 18.6528 37.8959 19.1736C37.7153 19.2847 37.6667 19.5278 37.8125 19.7014C38.1458 20.1111 38.3333 20.6389 38.3333 21.2153C38.3333 22.6806 37.1389 23.8889 35.6597 23.8889C35.3959 23.8889 35.1528 23.8542 34.9097 23.7778C34.75 23.7292 34.5903 23.8403 34.5903 24.0069V24.0139C34.6042 24.625 34.3403 25.2083 33.8681 25.6319C33.3958 26.0556 32.7847 26.2639 32.1667 26.1944C32.0208 26.1806 31.9028 26.3056 31.9445 26.4444C32.2292 27.3125 31.8542 28.2917 30.95 28.7986C30.6653 28.9583 30.3542 29.0417 30.0347 29.0417C29.9097 29.0417 29.7847 29.0278 29.6597 29C29.4931 28.9514 29.3542 29.0972 29.3958 29.2639C29.5139 29.7708 29.4375 30.3125 29.1459 30.7639C28.8264 31.25 28.3125 31.5417 27.7778 31.5764C27.6458 31.5833 27.5556 31.7083 27.6042 31.8333C27.7778 32.2778 27.7708 32.7986 27.5486 33.2778C27.1875 34.0625 26.3264 34.5 25.4583 34.3333C25.2292 34.2917 25.0278 34.5 25.0903 34.7292C25.2292 35.2708 25.0764 35.8542 24.6806 36.25C24.3819 36.5556 23.9722 36.7014 23.5486 36.7014C23.4097 36.7014 23.2708 36.6806 23.1319 36.6389C22.9514 36.5833 22.7847 36.7361 22.8542 36.9097C23.1458 37.6736 22.7708 38.5833 21.9514 38.8889C21.7917 38.9514 21.6181 38.9792 21.4444 38.9792C21.2361 38.9792 21.0208 38.9375 20.8195 38.8472C20.5903 38.7431 20.3472 38.9028 20.3334 39.1597C20.3125 39.4583 20.1875 39.7431 19.9792 39.9722C19.6667 40.3264 19.1944 40.5 18.7153 40.4653C17.7014 40.3889 16.9236 39.5 17.0208 38.4792C17.0347 38.3264 16.9097 38.1944 16.7569 38.2292C16.5069 38.2847 16.2431 38.3125 15.9792 38.3125C15.5278 38.3125 15.0903 38.2292 14.6875 38.0625C14.5069 37.9792 14.3125 38.0972 14.3125 38.2986V39.5C14.3125 39.7778 14.0903 40 13.8125 40C13.6875 40 13.3681 40 12.7292 39.9931C12.5347 39.9931 12.3819 39.8333 12.3819 39.6389V38.2083C12.3819 38.0208 12.1875 37.9028 12.0139 37.9931C11.5833 38.2083 11.1042 38.3333 10.5833 38.3333C9.54167 38.3333 8.61806 37.8264 8.07639 37.0347C7.9375 36.8403 7.66667 36.8403 7.59722 37.0764C7.15972 38.4444 5.83333 39.3542 4.38194 39.1667C3.55556 39.0556 2.84028 38.6319 2.36806 38.0069C2.26389 37.8681 2.06944 37.8681 1.98611 38.0208C1.33333 39.2431 0.0486087 39.8611 -1.19444 39.5764C-1.52778 39.5 -1.83333 39.3611 -2.11111 39.1667C-2.25694 39.0556 -2.45833 39.125 -2.44444 39.3125C-2.29861 40.7292 -3.375 41.9931 -4.79167 42.1389C-5.91667 42.25 -6.97917 41.6667 -7.46528 40.6528C-7.53472 40.5069 -7.73611 40.4653 -7.85417 40.5833C-8.77778 41.5278 -10.2778 41.7569 -11.4583 41.0833C-12.0208 40.7778 -12.4306 40.3125 -12.6667 39.7848C-12.7292 39.6319 -12.9583 39.6389 -13.0097 39.7986C-13.3403 40.9167 -14.3611 41.6944 -15.5139 41.6944C-16.3681 41.6944 -17.1458 41.2847 -17.5833 40.6181C-17.6875 40.4722 -17.9097 40.5208 -17.9444 40.6944C-18.1597 41.6319 -18.9306 42.3542 -19.875 42.5278C-20.8681 42.7083 -21.875 42.2778 -22.4097 41.4236C-22.4861 41.3055 -22.6806 41.3125 -22.75 41.4375C-23.1458 42.1528 -23.9028 42.6389 -24.7431 42.6389C-25.6736 42.6389 -26.5069 42.0764 -26.875 41.25C-26.9375 41.1111 -27.1319 41.1042 -27.2153 41.2347C-27.7292 42.0556 -28.6597 42.5556 -29.6806 42.4931C-30.6528 42.4375 -31.5139 41.8264 -31.9097 40.9514C-31.9722 40.8125 -32.1667 40.8125 -32.2222 40.9514C-32.7222 42.0139 -33.8333 42.6667 -35.0139 42.5347C-35.9792 42.4236 -36.7917 41.7847 -37.125 40.9167C-37.1875 40.7778 -37.3819 40.7778 -37.4375 40.9167C-37.8958 41.9517 -38.9444 42.625 -40.0972 42.5486C-40.4514 42.525 -40.7917 42.4375 -41.0972 42.3055" stroke="white" stroke-width="3" stroke-linecap="round"/>
  
  <!-- Location pin -->
  <path d="M19 11C17.8954 11 17 11.8954 17 13C17 14.1046 17.8954 15 19 15C20.1046 15 21 14.1046 21 13C21 11.8954 20.1046 11 19 11Z" fill="#5014d0"/>
  <path d="M19 12C18.4477 12 18 12.4477 18 13C18 13.5523 18.4477 14 19 14C19.5523 14 20 13.5523 20 13C20 12.4477 19.5523 12 19 12Z" fill="white"/>
  
  <!-- Text: realestate -->
  <path d="M47.68 24.52C47.32 24.52 46.98 24.49 46.66 24.43C46.34 24.37 46.07 24.28 45.85 24.16V23.08C46.09 23.21 46.36 23.31 46.66 23.38C46.96 23.45 47.25 23.48 47.54 23.48C47.92 23.48 48.24 23.43 48.5 23.33C48.76 23.23 48.95 23.08 49.09 22.9C49.23 22.72 49.29 22.51 49.29 22.26C49.29 21.95 49.2 21.71 49.01 21.53C48.81 21.35 48.56 21.24 48.26 21.2L47.44 21.09C46.85 21.01 46.36 20.8 45.98 20.46C45.6 20.12 45.42 19.65 45.42 19.06C45.42 18.64 45.52 18.27 45.73 17.95C45.93 17.63 46.21 17.38 46.58 17.2C46.95 17.02 47.38 16.93 47.87 16.93C48.21 16.93 48.52 16.96 48.81 17.02C49.1 17.08 49.35 17.16 49.56 17.25V18.32C49.38 18.22 49.15 18.14 48.88 18.09C48.61 18.04 48.34 18.01 48.06 18.01C47.7 18.01 47.39 18.06 47.14 18.16C46.89 18.26 46.7 18.4 46.57 18.58C46.44 18.76 46.37 18.97 46.37 19.21C46.37 19.47 46.45 19.68 46.61 19.83C46.77 19.98 46.99 20.07 47.27 20.1L48.09 20.21C48.69 20.3 49.18 20.51 49.56 20.85C49.94 21.19 50.12 21.65 50.12 22.24C50.12 22.66 50.02 23.03 49.81 23.36C49.6 23.69 49.3 23.94 48.92 24.13C48.53 24.39 48.16 24.52 47.68 24.52Z" fill="white"/>
  <path d="M54.4 24.52C53.76 24.52 53.18 24.38 52.68 24.1C52.18 23.82 51.78 23.42 51.5 22.9C51.22 22.38 51.08 21.77 51.08 21.08C51.08 20.39 51.22 19.79 51.5 19.26C51.78 18.73 52.18 18.33 52.68 18.05C53.18 17.77 53.76 17.63 54.4 17.63C55.04 17.63 55.62 17.77 56.12 18.05C56.62 18.33 57.01 18.73 57.3 19.26C57.58 19.79 57.72 20.39 57.72 21.08C57.72 21.77 57.58 22.37 57.3 22.9C57.01 23.42 56.62 23.82 56.12 24.1C55.62 24.38 55.04 24.52 54.4 24.52ZM54.4 23.41C54.83 23.41 55.21 23.32 55.52 23.14C55.83 22.95 56.07 22.68 56.24 22.33C56.41 21.98 56.5 21.56 56.5 21.08C56.5 20.6 56.41 20.18 56.24 19.83C56.07 19.47 55.83 19.2 55.52 19.01C55.21 18.83 54.83 18.74 54.4 18.74C53.97 18.74 53.59 18.83 53.28 19.01C52.97 19.2 52.73 19.47 52.56 19.83C52.39 20.18 52.3 20.6 52.3 21.08C52.3 21.56 52.39 21.98 52.56 22.33C52.73 22.68 52.97 22.95 53.28 23.14C53.59 23.32 53.97 23.41 54.4 23.41Z" fill="white"/>
  <path d="M61.94 24.4H60.82V17.75H61.94V19.01H62.03C62.31 18.09 62.9 17.63 63.81 17.63C64.24 17.63 64.59 17.73 64.89 17.93C65.18 18.13 65.4 18.4 65.56 18.76C65.71 19.11 65.79 19.54 65.79 20.03V24.4H64.67V20.19C64.67 19.65 64.55 19.24 64.32 18.96C64.09 18.67 63.76 18.53 63.33 18.53C63.04 18.53 62.77 18.6 62.54 18.75C62.31 18.9 62.13 19.11 61.99 19.38C61.85 19.65 61.84 19.97 61.94 20.35V24.4Z" fill="white"/>
  <path d="M68.88 24.4H67.76V17.75H68.88V24.4ZM68.36 16.49C68.17 16.49 68.01 16.43 67.87 16.31C67.73 16.19 67.66 16.04 67.66 15.86C67.66 15.68 67.73 15.54 67.87 15.42C68.01 15.3 68.17 15.24 68.36 15.24C68.56 15.24 68.72 15.3 68.86 15.42C69 15.54 69.07 15.69 69.07 15.86C69.07 16.03 69 16.19 68.86 16.31C68.72 16.43 68.56 16.49 68.36 16.49Z" fill="white"/>
  <path d="M72.6 24.52C72.13 24.52 71.72 24.42 71.37 24.22C71.02 24.02 70.75 23.72 70.55 23.33C70.35 22.94 70.25 22.47 70.25 21.9V17.75H71.37V21.82C71.37 22.35 71.49 22.76 71.72 23.04C71.96 23.33 72.29 23.47 72.72 23.47C73.01 23.47 73.27 23.4 73.51 23.25C73.75 23.1 73.93 22.89 74.07 22.63C74.21 22.37 74.28 22.05 74.28 21.69V17.75H75.4V24.4H74.28V23.16H74.2C73.92 24.07 73.35 24.52 72.6 24.52Z" fill="white"/>
  <path d="M77.37 24.4V18.76H76.45V17.75H77.37V16.74H78.49V17.75H79.59V18.76H78.49V24.4H77.37Z" fill="white"/>
  <path d="M82.98 24.52C82.34 24.52 81.76 24.38 81.26 24.1C80.76 23.82 80.36 23.42 80.07 22.9C79.79 22.38 79.65 21.77 79.65 21.08C79.65 20.39 79.8 19.79 80.08 19.26C80.36 18.73 80.76 18.33 81.27 18.05C81.77 17.77 82.34 17.63 82.99 17.63C83.63 17.63 84.21 17.77 84.71 18.05C85.21 18.33 85.6 18.73 85.89 19.26C86.17 19.79 86.31 20.39 86.31 21.08C86.31 21.77 86.17 22.37 85.89 22.9C85.6 23.42 85.21 23.82 84.71 24.1C84.21 24.38 83.63 24.52 82.98 24.52ZM82.99 23.41C83.42 23.41 83.79 23.32 84.11 23.14C84.42 22.95 84.66 22.68 84.83 22.33C84.99 21.98 85.08 21.56 85.08 21.08C85.08 20.6 84.99 20.18 84.83 19.83C84.66 19.47 84.42 19.2 84.11 19.01C83.79 18.83 83.42 18.74 82.99 18.74C82.56 18.74 82.18 18.83 81.87 19.01C81.56 19.2 81.32 19.47 81.15 19.83C80.98 20.18 80.89 20.6 80.89 21.08C80.89 21.56 80.98 21.98 81.15 22.33C81.32 22.68 81.56 22.95 81.87 23.14C82.18 23.32 82.56 23.41 82.99 23.41Z" fill="white"/>
  <path d="M88.4 24.4V18.76H87.48V17.75H88.4V16.74H89.52V17.75H90.62V18.76H89.52V24.4H88.4Z" fill="white"/>
  <path d="M94.44 24.52C93.8 24.52 93.22 24.38 92.72 24.1C92.22 23.82 91.82 23.42 91.54 22.9C91.26 22.38 91.12 21.77 91.12 21.08C91.12 20.39 91.26 19.79 91.54 19.26C91.82 18.73 92.22 18.33 92.72 18.05C93.22 17.77 93.8 17.63 94.44 17.63C95.08 17.63 95.66 17.77 96.16 18.05C96.66 18.33 97.05 18.73 97.34 19.26C97.62 19.79 97.76 20.39 97.76 21.08C97.76 21.77 97.62 22.37 97.34 22.9C97.05 23.42 96.66 23.82 96.16 24.1C95.66 24.38 95.08 24.52 94.44 24.52ZM94.44 23.41C94.87 23.41 95.25 23.32 95.56 23.14C95.87 22.95 96.11 22.68 96.28 22.33C96.45 21.98 96.54 21.56 96.54 21.08C96.54 20.6 96.45 20.18 96.28 19.83C96.11 19.47 95.87 19.2 95.56 19.01C95.25 18.83 94.87 18.74 94.44 18.74C94.01 18.74 93.63 18.83 93.32 19.01C93.01 19.2 92.77 19.47 92.6 19.83C92.43 20.18 92.34 20.6 92.34 21.08C92.34 21.56 92.43 21.98 92.6 22.33C92.77 22.68 93.01 22.95 93.32 23.14C93.63 23.32 94.01 23.41 94.44 23.41Z" fill="white"/>
  
  <!-- Text: api -->
  <path d="M104.91 24.52C104.22 24.52 103.61 24.38 103.08 24.1C102.56 23.82 102.14 23.42 101.83 22.9C101.52 22.38 101.36 21.77 101.36 21.08C101.36 20.39 101.52 19.78 101.83 19.26C102.15 18.74 102.58 18.33 103.11 18.05C103.64 17.77 104.24 17.63 104.92 17.63C105.35 17.63 105.75 17.7 106.11 17.83C106.47 17.96 106.79 18.15 107.06 18.39L106.5 19.33C106.3 19.15 106.07 19.01 105.81 18.91C105.55 18.8 105.27 18.75 104.97 18.75C104.56 18.75 104.2 18.84 103.88 19.01C103.56 19.18 103.31 19.44 103.13 19.79C102.95 20.14 102.86 20.57 102.86 21.08C102.86 21.59 102.95 22.02 103.13 22.37C103.31 22.72 103.56 22.98 103.88 23.15C104.2 23.32 104.56 23.41 104.97 23.41C105.27 23.41 105.55 23.36 105.81 23.25C106.07 23.15 106.3 23.01 106.5 22.83L107.06 23.77C106.79 24.01 106.47 24.2 106.11 24.33C105.75 24.46 105.35 24.52 104.91 24.52Z" fill="#04c8c8"/>
  <path d="M110.72 24.52C110.08 24.52 109.5 24.38 109 24.1C108.5 23.82 108.1 23.42 107.82 22.9C107.54 22.38 107.4 21.77 107.4 21.08C107.4 20.39 107.54 19.79 107.82 19.26C108.1 18.73 108.5 18.33 109 18.05C109.5 17.77 110.08 17.63 110.72 17.63C111.36 17.63 111.94 17.77 112.44 18.05C112.94 18.33 113.33 18.73 113.62 19.26C113.9 19.79 114.04 20.39 114.04 21.08C114.04 21.77 113.9 22.37 113.62 22.9C113.33 23.42 112.94 23.82 112.44 24.1C111.94 24.38 111.36 24.52 110.72 24.52ZM110.72 23.41C111.15 23.41 111.53 23.32 111.84 23.14C112.15 22.95 112.39 22.68 112.56 22.33C112.73 21.98 112.82 21.56 112.82 21.08C112.82 20.6 112.73 20.18 112.56 19.83C112.39 19.47 112.15 19.2 111.84 19.01C111.53 18.83 111.15 18.74 110.72 18.74C110.29 18.74 109.91 18.83 109.6 19.01C109.29 19.2 109.05 19.47 108.88 19.83C108.71 20.18 108.62 20.6 108.62 21.08C108.62 21.56 108.71 21.98 108.88 22.33C109.05 22.68 109.29 22.95 109.6 23.14C109.91 23.32 110.29 23.41 110.72 23.41Z" fill="#04c8c8"/>
  <path d="M116.43 24.4H115.31V17.75H116.43V24.4ZM115.91 16.49C115.72 16.49 115.56 16.43 115.42 16.31C115.28 16.19 115.21 16.04 115.21 15.86C115.21 15.68 115.28 15.54 115.42 15.42C115.56 15.3 115.72 15.24 115.91 15.24C116.11 15.24 116.27 15.3 116.41 15.42C116.55 15.54 116.62 15.69 116.62 15.86C116.62 16.03 116.55 16.19 116.41 16.31C116.27 16.43 116.11 16.49 115.91 16.49Z" fill="#04c8c8"/>
</svg>
