
<svg width="160" height="40" viewBox="0 0 160 40" fill="none" xmlns="http://www.w3.org/2000/svg">
  <!-- Location pin in cloud/flower shape -->
  <path d="M20 9C16.5 9 13.5 11.5 13.5 15C13.5 18 16 21 20 25C24 21 26.5 18 26.5 15C26.5 11.5 23.5 9 20 9ZM20 17.5C18.6 17.5 17.5 16.4 17.5 15C17.5 13.6 18.6 12.5 20 12.5C21.4 12.5 22.5 13.6 22.5 15C22.5 16.4 21.4 17.5 20 17.5Z" fill="white"/>
  
  <!-- Cloud/flower shape around the pin -->
  <path d="M30 20C32.2 20 34 18.2 34 16C34 13.8 32.2 12 30 12C29.8 12 29.7 12 29.5 12C29.8 11.4 30 10.7 30 10C30 7.8 28.2 6 26 6C24.7 6 23.5 6.6 22.7 7.5C21.9 6.6 20.8 6 19.5 6C17.3 6 15.5 7.8 15.5 10C15.5 10.3 15.6 10.7 15.7 11C14.1 11.2 12.7 12.4 12.3 14C10.4 14.4 9 16.1 9 18C9 20.2 10.8 22 13 22C13.3 22 13.7 22 14 21.9C14.5 24.2 16.5 26 19 26C20.3 26 21.4 25.5 22.3 24.7C23.2 25.5 24.3 26 25.6 26C28.1 26 30.1 24.2 30.6 21.9C30.7 22 30.9 22 31 22C33.2 22 35 20.2 35 18C35 16.1 33.8 14.5 32 14.1C32 14.1 32 14 32 14C32 13.8 32 13.7 32 13.5C32.7 13.8 33.3 14 34 14C36.2 14 38 12.2 38 10C38 7.8 36.2 6 34 6C32.9 6 31.9 6.4 31.1 7.1C30.8 5.3 29.3 4 27.5 4C26.1 4 24.9 4.8 24.2 6C23.5 4.8 22.3 4 21 4C19.7 4 18.5 4.8 17.8 6C17.1 4.8 15.9 4 14.5 4C12.7 4 11.2 5.3 10.9 7.1C10.1 6.4 9.1 6 8 6C5.8 6 4 7.8 4 10C4 12.2 5.8 14 8 14C8.7 14 9.3 13.8 9.9 13.5C9.9 13.7 9.9 13.8 9.9 14C9.9 14 9.9 14.1 9.9 14.1C8.2 14.5 7 16.1 7 18C7 20.2 8.8 22 11 22C11.1 22 11.3 22 11.4 21.9C11.9 24.2 13.9 26 16.4 26C17.7 26 18.8 25.5 19.7 24.7C20.6 25.5 21.7 26 23 26C25.5 26 27.5 24.2 28 21.9C28.3 22 28.7 22 29 22C29.3 22 29.7 22 30 21.9" fill="white"/>
  
  <!-- API text -->
  <path d="M110 16L107 16L107 13L104 13L104 25L107 25L107 19L110 19L110 25L113 25L113 13L110 13L110 16Z" fill="white"/>
  <path d="M120 13C116.5 13 114 15.5 114 19C114 22.5 116.5 25 120 25C123.5 25 126 22.5 126 19C126 15.5 123.5 13 120 13ZM120 22C118.3 22 117 20.7 117 19C117 17.3 118.3 16 120 16C121.7 16 123 17.3 123 19C123 20.7 121.7 22 120 22Z" fill="white"/>
  <path d="M127 13L127 25L136 25L136 22L130 22L130 13L127 13Z" fill="white"/>
</svg>
