
<svg width="160" height="40" viewBox="0 0 160 40" fill="none" xmlns="http://www.w3.org/2000/svg">
  <!-- Logo symbol: house with location pin -->
  <path d="M13 28L13 15L20 10L27 15L27 28L13 28Z" fill="white"/>
  <path d="M20 23C21.6569 23 23 21.6569 23 20C23 18.3431 21.6569 17 20 17C18.3431 17 17 18.3431 17 20C17 21.6569 18.3431 23 20 23Z" fill="#5014d0"/>
  <path d="M20 25C22.7614 25 25 22.7614 25 20C25 17.2386 22.7614 15 20 15C17.2386 15 15 17.2386 15 20C15 22.7614 17.2386 25 20 25Z" stroke="white" stroke-width="1.5"/>
  
  <!-- Text: RealEstate -->
  <path d="M45 22.5h-4.2v-9.2h-2.5v12h6.7v-2.8zm6.5-9.2c-3.5 0-5.6 2.5-5.6 6.1s2.1 6.1 5.6 6.1 5.6-2.5 5.6-6.1-2.1-6.1-5.6-6.1zm0 9.4c-1.7 0-2.9-1.3-2.9-3.3s1.2-3.3 2.9-3.3 2.9 1.3 2.9 3.3-1.2 3.3-2.9 3.3zm15.9-6.5h-4.3v-2.9h-2.7v12h2.7v-6.3h4.3v6.3h2.7v-12h-2.7v2.9zm7.7-2.9h-2.7v12h2.7v-12zm9.6 9.2c-1.7 0-2.9-1.3-2.9-3.3s1.2-3.3 2.9-3.3c1.2 0 2.1.6 2.5 1.7h2.9c-.5-2.6-2.7-4.3-5.4-4.3-3.5 0-5.6 2.5-5.6 6.1s2.1 6.1 5.6 6.1c2.8 0 4.9-1.8 5.4-4.4h-2.9c-.4 1-1.3 1.7-2.5 1.7zm9.6-6.5v2.1h3.8v7.1h2.7v-7.1h3.8v-2.1h-10.3zm14.1 0v2.1h3.8v7.1h2.7v-7.1h3.8v-2.1h-10.3zm21.4 2.3c0-2.8-2-4.9-5.3-4.9h-5.2v12h2.7v-3.8h2c.1 0 .2 0 .3 0l2.1 3.8h3.2l-2.5-4.3c1.6-.8 2.7-2.3 2.7-4.3v-2.5zm-5.1 1c1.3 0 2.3.5 2.3 1.8s-1 1.8-2.3 1.8h-2.7v-3.5h2.7z" fill="white"/>
  
  <!-- Text: API -->
  <path d="M137.2 22.5h-4.2v-9.2h-2.5v12h6.7v-2.8zm9.3-9.2c-3.5 0-5.6 2.5-5.6 6.1s2.1 6.1 5.6 6.1 5.6-2.5 5.6-6.1-2.1-6.1-5.6-6.1zm0 9.4c-1.7 0-2.9-1.3-2.9-3.3s1.2-3.3 2.9-3.3 2.9 1.3 2.9 3.3-1.2 3.3-2.9 3.3z" fill="white"/>
  <path d="M144.8 13.3h2.7v2.9h4.3v-2.9h2.7v12h-2.7v-6.3h-4.3v6.3h-2.7v-12z" fill="white"/>
</svg>
